<svg xmlns="http://www.w3.org/2000/svg" width="36" height="36" viewBox="0 0 36 36" fill="none" stroke="#3A3A3A" stroke-width="0.9" stroke-linecap="round" stroke-linejoin="round">
  <!-- Gift box body -->
  <rect x="7" y="17" width="22" height="14" rx="1"/>
  <!-- Gift lid -->
  <rect x="5" y="13" width="26" height="5" rx="1"/>
  <!-- Ribbon vertical -->
  <line x1="18" y1="13" x2="18" y2="31"/>
  <!-- Ribbon horizontal across lid -->
  <line x1="5" y1="15.5" x2="31" y2="15.5"/>
  <!-- Left bow -->
  <path d="M18 13c-1-4-4-8-7-6s1 6 7 6"/>
  <!-- Right bow -->
  <path d="M18 13c1-4 4-8 7-6s-1 6-7 6"/>
  <!-- Bow loops (outer) -->
  <path d="M18 13c-2-3-6-6-8-4" stroke-width="0.7"/>
  <path d="M18 13c2-3 6-6 8-4" stroke-width="0.7"/>
</svg>
